<svg width="263" height="408" xmlns="http://www.w3.org/2000/svg">
 <title>Silla</title>

 <g>
  <title>Layer 1</title>
  <path fill="none" opacity="undefined" d="m69.54331,67.70105l123,0l0,270.45534l-123,0l0,-270.45534z" id="svg_39" stroke="#000"/>
  <g transform="rotate(90 230.309 129.932)" id="svg_14">
   <path transform="rotate(15.3694 245.187 118.729)" stroke="#000" id="svg_1" d="m243.42571,110.0711l3.52423,0l0,17.31657l-3.52423,0l0,-17.31657z" fill="#ffffff"/>
   <path transform="rotate(5.42868 235.246 117.471)" stroke="#000" id="svg_2" d="m233.48423,111.37815l3.52423,0l0,12.18616l-3.52423,0l0,-12.18616z" fill="#ffffff"/>
   <path transform="rotate(-10.3467 225.554 116.81)" stroke="#000" id="svg_3" d="m223.7926,110.71736l3.52423,0l0,12.18615l-3.52423,0l0,-12.18615z" fill="#ffffff"/>
   <path transform="rotate(-22.6715 216.113 118.509)" stroke="#000" id="svg_4" d="m214.35082,109.85083l3.52423,0l0,17.31658l-3.52423,0l0,-17.31658z" fill="#ffffff"/>
   <path id="svg_5" d="m231.46779,161.13311c-11.60221,0 -21,-8.95028 -21,-20c0,-11.04972 9.39779,-20 21,-20c11.60221,0 21,8.95028 21,20c0,11.04972 -9.39779,20 -21,20z" opacity="undefined" stroke="#000" fill="#ffffff"/>
   <ellipse stroke="#000" ry="7.26872" rx="26.95475" id="svg_6" cy="106.00099" cx="230.30933" fill="#ffffff"/>
  </g>
  <g transform="rotate(90 229.828 207.229)" id="svg_15">
   <path transform="rotate(15.3694 244.706 196.027)" stroke="#000" id="svg_8" d="m242.94492,187.36811l3.52423,0l0,17.31657l-3.52423,0l0,-17.31657z" fill="#ffffff"/>
   <path transform="rotate(5.42868 234.765 194.768)" stroke="#000" id="svg_9" d="m233.00344,188.67516l3.52423,0l0,12.18616l-3.52423,0l0,-12.18616z" fill="#ffffff"/>
   <path transform="rotate(-10.3467 225.073 194.107)" stroke="#000" id="svg_10" d="m223.31181,188.01437l3.52423,0l0,12.18615l-3.52423,0l0,-12.18615z" fill="#ffffff"/>
   <path transform="rotate(-22.6715 215.632 195.806)" stroke="#000" id="svg_11" d="m213.87003,187.14784l3.52423,0l0,17.31658l-3.52423,0l0,-17.31658z" fill="#ffffff"/>
   <path id="svg_12" d="m230.987,238.43012c-11.60221,0 -21,-8.95028 -21,-20c0,-11.04972 9.39779,-20 21,-20c11.60221,0 21,8.95028 21,20c0,11.04972 -9.39779,20 -21,20z" opacity="undefined" stroke="#000" fill="#ffffff"/>
   <ellipse stroke="#000" ry="7.26872" rx="26.95475" id="svg_13" cy="183.29801" cx="229.82854" fill="#ffffff"/>
  </g>
  <g transform="rotate(90 230.234 283.479)" id="svg_22">
   <path transform="rotate(15.3694 245.112 272.277)" stroke="#000" id="svg_16" d="m243.35093,263.61811l3.52423,0l0,17.31657l-3.52423,0l0,-17.31657z" fill="#ffffff"/>
   <path transform="rotate(5.42868 235.171 271.018)" stroke="#000" id="svg_17" d="m233.40945,264.92516l3.52423,0l0,12.18616l-3.52423,0l0,-12.18616z" fill="#ffffff"/>
   <path transform="rotate(-10.3467 225.479 270.357)" stroke="#000" id="svg_18" d="m223.71782,264.26437l3.52423,0l0,12.18615l-3.52423,0l0,-12.18615z" fill="#ffffff"/>
   <path transform="rotate(-22.6715 216.038 272.056)" stroke="#000" id="svg_19" d="m214.27604,263.39784l3.52423,0l0,17.31658l-3.52423,0l0,-17.31658z" fill="#ffffff"/>
   <path id="svg_20" d="m231.39301,314.68012c-11.60221,0 -21,-8.95028 -21,-20c0,-11.04972 9.39779,-20 21,-20c11.60221,0 21,8.95028 21,20c0,11.04972 -9.39779,20 -21,20z" opacity="undefined" stroke="#000" fill="#ffffff"/>
   <ellipse stroke="#000" ry="7.26872" rx="26.95475" id="svg_21" cy="259.548" cx="230.23454" fill="#ffffff"/>
  </g>
  <g id="svg_29">
   <path transform="rotate(15.3694 146.833 19.0713)" stroke="#000" id="svg_23" d="m145.07133,10.41289l3.52423,0l0,17.31657l-3.52423,0l0,-17.31657z" fill="#ffffff"/>
   <path transform="rotate(5.42868 136.892 17.8133)" stroke="#000" id="svg_24" d="m135.12985,11.71994l3.52423,0l0,12.18616l-3.52423,0l0,-12.18616z" fill="#ffffff"/>
   <path transform="rotate(-10.3467 127.2 17.1523)" stroke="#000" id="svg_25" d="m125.43822,11.05915l3.52423,0l0,12.18615l-3.52423,0l0,-12.18615z" fill="#ffffff"/>
   <path transform="rotate(-22.6715 117.759 18.8513)" stroke="#000" id="svg_26" d="m115.99644,10.19262l3.52423,0l0,17.31658l-3.52423,0l0,-17.31658z" fill="#ffffff"/>
   <path id="svg_27" d="m133.11341,61.4749c-11.60221,0 -21,-8.95028 -21,-20c0,-11.04972 9.39779,-20 21,-20c11.60221,0 21,8.95028 21,20c0,11.04972 -9.39779,20 -21,20z" opacity="undefined" stroke="#000" fill="#ffffff"/>
   <ellipse stroke="#000" ry="7.26872" rx="26.95475" id="svg_28" cy="6.34279" cx="131.95494" fill="#ffffff"/>
  </g>
  <g transform="rotate(180 133.622 375.831)" id="svg_36">
   <path transform="rotate(15.3694 148.499 364.628)" stroke="#000" id="svg_30" d="m146.73801,355.96914l3.52423,0l0,17.31657l-3.52423,0l0,-17.31657z" fill="#ffffff"/>
   <path transform="rotate(5.42868 138.558 363.37)" stroke="#000" id="svg_31" d="m136.79653,357.27619l3.52423,0l0,12.18616l-3.52423,0l0,-12.18616z" fill="#ffffff"/>
   <path transform="rotate(-10.3467 128.866 362.709)" stroke="#000" id="svg_32" d="m127.1049,356.6154l3.52423,0l0,12.18615l-3.52423,0l0,-12.18615z" fill="#ffffff"/>
   <path transform="rotate(-22.6715 119.425 364.408)" stroke="#000" id="svg_33" d="m117.66312,355.74887l3.52423,0l0,17.31658l-3.52423,0l0,-17.31658z" fill="#ffffff"/>
   <path id="svg_34" d="m134.78009,407.03115c-11.60221,0 -21,-8.95028 -21,-20c0,-11.04972 9.39779,-20 21,-20c11.60221,0 21,8.95028 21,20c0,11.04972 -9.39779,20 -21,20z" opacity="undefined" stroke="#000" fill="#ffffff"/>
   <ellipse stroke="#000" ry="7.26872" rx="26.95475" id="svg_35" cy="351.89903" cx="133.62162" fill="#ffffff"/>
  </g>
  <g transform="rotate(-90 29.7325 133.608)" id="svg_44">
   <path transform="rotate(15.3694 44.6101 122.405)" stroke="#000" id="svg_37" d="m42.8489,113.74644l3.52423,0l0,17.31657l-3.52423,0l0,-17.31657z" fill="#ffffff"/>
   <path transform="rotate(5.42868 34.6691 121.147)" stroke="#000" id="svg_38" d="m32.90742,115.05349l3.52423,0l0,12.18616l-3.52423,0l0,-12.18616z" fill="#ffffff"/>
   <path transform="rotate(-10.3467 24.9771 120.486)" stroke="#000" id="svg_40" d="m23.21579,114.3927l3.52423,0l0,12.18615l-3.52423,0l0,-12.18615z" fill="#ffffff"/>
   <path transform="rotate(-22.6715 15.5361 122.185)" stroke="#000" id="svg_41" d="m13.77401,113.52617l3.52423,0l0,17.31658l-3.52423,0l0,-17.31658z" fill="#ffffff"/>
   <path id="svg_42" d="m30.89098,164.80845c-11.60221,0 -21,-8.95028 -21,-20c0,-11.04972 9.39779,-20 21,-20c11.60221,0 21,8.95028 21,20c0,11.04972 -9.39779,20 -21,20z" opacity="undefined" stroke="#000" fill="#ffffff"/>
   <ellipse stroke="#000" ry="7.26872" rx="26.95475" id="svg_43" cy="109.67633" cx="29.73252" fill="#ffffff"/>
  </g>
  <g transform="rotate(-90 31.3987 209.164)" id="svg_51">
   <path transform="rotate(15.3694 46.2767 197.96)" stroke="#000" id="svg_45" d="m44.51557,189.30214l3.52423,0l0,17.31657l-3.52423,0l0,-17.31657z" fill="#ffffff"/>
   <path transform="rotate(5.42868 36.3357 196.702)" stroke="#000" id="svg_46" d="m34.57409,190.60919l3.52423,0l0,12.18616l-3.52423,0l0,-12.18616z" fill="#ffffff"/>
   <path transform="rotate(-10.3467 26.6437 196.041)" stroke="#000" id="svg_47" d="m24.88246,189.9484l3.52423,0l0,12.18615l-3.52423,0l0,-12.18615z" fill="#ffffff"/>
   <path transform="rotate(-22.6715 17.2027 197.74)" stroke="#000" id="svg_48" d="m15.44068,189.08187l3.52423,0l0,17.31658l-3.52423,0l0,-17.31658z" fill="#ffffff"/>
   <path id="svg_49" d="m32.55765,240.36415c-11.60221,0 -21,-8.95028 -21,-20c0,-11.04972 9.39779,-20 21,-20c11.60221,0 21,8.95028 21,20c0,11.04972 -9.39779,20 -21,20z" opacity="undefined" stroke="#000" fill="#ffffff"/>
   <ellipse stroke="#000" ry="7.26872" rx="26.95475" id="svg_50" cy="185.23203" cx="31.39919" fill="#ffffff"/>
  </g>
  <g transform="rotate(-90 31.9542 284.164)" id="svg_58">
   <path transform="rotate(15.3694 46.8322 272.96)" stroke="#000" id="svg_52" d="m45.07113,264.3023l3.52423,0l0,17.31657l-3.52423,0l0,-17.31657z" fill="#ffffff"/>
   <path transform="rotate(5.42868 36.8912 271.702)" stroke="#000" id="svg_53" d="m35.12965,265.60935l3.52423,0l0,12.18616l-3.52423,0l0,-12.18616z" fill="#ffffff"/>
   <path transform="rotate(-10.3467 27.1992 271.041)" stroke="#000" id="svg_54" d="m25.43802,264.94856l3.52423,0l0,12.18615l-3.52423,0l0,-12.18615z" fill="#ffffff"/>
   <path transform="rotate(-22.6715 17.7582 272.74)" stroke="#000" id="svg_55" d="m15.99624,264.08203l3.52423,0l0,17.31658l-3.52423,0l0,-17.31658z" fill="#ffffff"/>
   <path id="svg_56" d="m33.11321,315.36431c-11.60221,0 -21,-8.95028 -21,-20c0,-11.04972 9.39779,-20 21,-20c11.60221,0 21,8.95028 21,20c0,11.04972 -9.39779,20 -21,20z" opacity="undefined" stroke="#000" fill="#ffffff"/>
   <ellipse stroke="#000" ry="7.26872" rx="26.95475" id="svg_57" cy="260.23219" cx="31.95474" fill="#ffffff"/>
  </g>
 </g>
</svg>