<svg width="263" height="408" xmlns="http://www.w3.org/2000/svg">
 <title>Silla</title>

 <g>
  <title>Layer 1</title>
  <path stroke="#000" id="svg_39" d="m69.54331,67.70105l123,0l0,270.45534l-123,0l0,-270.45534z" opacity="undefined" fill="#ffffff"/>
  <g id="svg_14" transform="rotate(90 230.309 129.932)">
   <path fill="#ffffff" d="m243.42571,110.0711l3.52423,0l0,17.31657l-3.52423,0l0,-17.31657z" id="svg_1" stroke="#000" transform="rotate(15.3694 245.187 118.729)"/>
   <path fill="#ffffff" d="m233.48423,111.37815l3.52423,0l0,12.18616l-3.52423,0l0,-12.18616z" id="svg_2" stroke="#000" transform="rotate(5.42868 235.246 117.471)"/>
   <path fill="#ffffff" d="m223.7926,110.71736l3.52423,0l0,12.18615l-3.52423,0l0,-12.18615z" id="svg_3" stroke="#000" transform="rotate(-10.3467 225.554 116.81)"/>
   <path fill="#ffffff" d="m214.35082,109.85083l3.52423,0l0,17.31658l-3.52423,0l0,-17.31658z" id="svg_4" stroke="#000" transform="rotate(-22.6715 216.113 118.509)"/>
   <path fill="#ffffff" stroke="#000" opacity="undefined" d="m231.46779,161.13311c-11.60221,0 -21,-8.95028 -21,-20c0,-11.04972 9.39779,-20 21,-20c11.60221,0 21,8.95028 21,20c0,11.04972 -9.39779,20 -21,20z" id="svg_5"/>
   <ellipse fill="#ffffff" cx="230.30933" cy="106.00099" id="svg_6" rx="26.95475" ry="7.26872" stroke="#000"/>
  </g>
  <g id="svg_15" transform="rotate(90 229.828 207.229)">
   <path fill="#ffffff" d="m242.94492,187.36811l3.52423,0l0,17.31657l-3.52423,0l0,-17.31657z" id="svg_8" stroke="#000" transform="rotate(15.3694 244.706 196.027)"/>
   <path fill="#ffffff" d="m233.00344,188.67516l3.52423,0l0,12.18616l-3.52423,0l0,-12.18616z" id="svg_9" stroke="#000" transform="rotate(5.42868 234.765 194.768)"/>
   <path fill="#ffffff" d="m223.31181,188.01437l3.52423,0l0,12.18615l-3.52423,0l0,-12.18615z" id="svg_10" stroke="#000" transform="rotate(-10.3467 225.073 194.107)"/>
   <path fill="#ffffff" d="m213.87003,187.14784l3.52423,0l0,17.31658l-3.52423,0l0,-17.31658z" id="svg_11" stroke="#000" transform="rotate(-22.6715 215.632 195.806)"/>
   <path fill="#ffffff" stroke="#000" opacity="undefined" d="m230.987,238.43012c-11.60221,0 -21,-8.95028 -21,-20c0,-11.04972 9.39779,-20 21,-20c11.60221,0 21,8.95028 21,20c0,11.04972 -9.39779,20 -21,20z" id="svg_12"/>
   <ellipse fill="#ffffff" cx="229.82854" cy="183.29801" id="svg_13" rx="26.95475" ry="7.26872" stroke="#000"/>
  </g>
  <g id="svg_22" transform="rotate(90 230.234 283.479)">
   <path fill="#ffffff" d="m243.35093,263.61811l3.52423,0l0,17.31657l-3.52423,0l0,-17.31657z" id="svg_16" stroke="#000" transform="rotate(15.3694 245.112 272.277)"/>
   <path fill="#ffffff" d="m233.40945,264.92516l3.52423,0l0,12.18616l-3.52423,0l0,-12.18616z" id="svg_17" stroke="#000" transform="rotate(5.42868 235.171 271.018)"/>
   <path fill="#ffffff" d="m223.71782,264.26437l3.52423,0l0,12.18615l-3.52423,0l0,-12.18615z" id="svg_18" stroke="#000" transform="rotate(-10.3467 225.479 270.357)"/>
   <path fill="#ffffff" d="m214.27604,263.39784l3.52423,0l0,17.31658l-3.52423,0l0,-17.31658z" id="svg_19" stroke="#000" transform="rotate(-22.6715 216.038 272.056)"/>
   <path fill="#ffffff" stroke="#000" opacity="undefined" d="m231.39301,314.68012c-11.60221,0 -21,-8.95028 -21,-20c0,-11.04972 9.39779,-20 21,-20c11.60221,0 21,8.95028 21,20c0,11.04972 -9.39779,20 -21,20z" id="svg_20"/>
   <ellipse fill="#ffffff" cx="230.23454" cy="259.548" id="svg_21" rx="26.95475" ry="7.26872" stroke="#000"/>
  </g>
  <g id="svg_29">
   <path fill="#ffffff" d="m145.07133,10.41289l3.52423,0l0,17.31657l-3.52423,0l0,-17.31657z" id="svg_23" stroke="#000" transform="rotate(15.3694 146.833 19.0713)"/>
   <path fill="#ffffff" d="m135.12985,11.71994l3.52423,0l0,12.18616l-3.52423,0l0,-12.18616z" id="svg_24" stroke="#000" transform="rotate(5.42868 136.892 17.8133)"/>
   <path fill="#ffffff" d="m125.43822,11.05915l3.52423,0l0,12.18615l-3.52423,0l0,-12.18615z" id="svg_25" stroke="#000" transform="rotate(-10.3467 127.2 17.1523)"/>
   <path fill="#ffffff" d="m115.99644,10.19262l3.52423,0l0,17.31658l-3.52423,0l0,-17.31658z" id="svg_26" stroke="#000" transform="rotate(-22.6715 117.759 18.8513)"/>
   <path fill="#ffffff" stroke="#000" opacity="undefined" d="m133.11341,61.4749c-11.60221,0 -21,-8.95028 -21,-20c0,-11.04972 9.39779,-20 21,-20c11.60221,0 21,8.95028 21,20c0,11.04972 -9.39779,20 -21,20z" id="svg_27"/>
   <ellipse fill="#ffffff" cx="131.95494" cy="6.34279" id="svg_28" rx="26.95475" ry="7.26872" stroke="#000"/>
  </g>
  <g id="svg_36" transform="rotate(180 133.622 375.831)">
   <path fill="#ffffff" d="m146.73801,355.96914l3.52423,0l0,17.31657l-3.52423,0l0,-17.31657z" id="svg_30" stroke="#000" transform="rotate(15.3694 148.499 364.628)"/>
   <path fill="#ffffff" d="m136.79653,357.27619l3.52423,0l0,12.18616l-3.52423,0l0,-12.18616z" id="svg_31" stroke="#000" transform="rotate(5.42868 138.558 363.37)"/>
   <path fill="#ffffff" d="m127.1049,356.6154l3.52423,0l0,12.18615l-3.52423,0l0,-12.18615z" id="svg_32" stroke="#000" transform="rotate(-10.3467 128.866 362.709)"/>
   <path fill="#ffffff" d="m117.66312,355.74887l3.52423,0l0,17.31658l-3.52423,0l0,-17.31658z" id="svg_33" stroke="#000" transform="rotate(-22.6715 119.425 364.408)"/>
   <path fill="#ffffff" stroke="#000" opacity="undefined" d="m134.78009,407.03115c-11.60221,0 -21,-8.95028 -21,-20c0,-11.04972 9.39779,-20 21,-20c11.60221,0 21,8.95028 21,20c0,11.04972 -9.39779,20 -21,20z" id="svg_34"/>
   <ellipse fill="#ffffff" cx="133.62162" cy="351.89903" id="svg_35" rx="26.95475" ry="7.26872" stroke="#000"/>
  </g>
  <g id="svg_44" transform="rotate(-90 29.7325 133.608)">
   <path fill="#ffffff" d="m42.8489,113.74644l3.52423,0l0,17.31657l-3.52423,0l0,-17.31657z" id="svg_37" stroke="#000" transform="rotate(15.3694 44.6101 122.405)"/>
   <path fill="#ffffff" d="m32.90742,115.05349l3.52423,0l0,12.18616l-3.52423,0l0,-12.18616z" id="svg_38" stroke="#000" transform="rotate(5.42868 34.6691 121.147)"/>
   <path fill="#ffffff" d="m23.21579,114.3927l3.52423,0l0,12.18615l-3.52423,0l0,-12.18615z" id="svg_40" stroke="#000" transform="rotate(-10.3467 24.9771 120.486)"/>
   <path fill="#ffffff" d="m13.77401,113.52617l3.52423,0l0,17.31658l-3.52423,0l0,-17.31658z" id="svg_41" stroke="#000" transform="rotate(-22.6715 15.5361 122.185)"/>
   <path fill="#ffffff" stroke="#000" opacity="undefined" d="m30.89098,164.80845c-11.60221,0 -21,-8.95028 -21,-20c0,-11.04972 9.39779,-20 21,-20c11.60221,0 21,8.95028 21,20c0,11.04972 -9.39779,20 -21,20z" id="svg_42"/>
   <ellipse fill="#ffffff" cx="29.73252" cy="109.67633" id="svg_43" rx="26.95475" ry="7.26872" stroke="#000"/>
  </g>
  <g id="svg_51" transform="rotate(-90 31.3987 209.164)">
   <path fill="#ffffff" d="m44.51557,189.30214l3.52423,0l0,17.31657l-3.52423,0l0,-17.31657z" id="svg_45" stroke="#000" transform="rotate(15.3694 46.2767 197.96)"/>
   <path fill="#ffffff" d="m34.57409,190.60919l3.52423,0l0,12.18616l-3.52423,0l0,-12.18616z" id="svg_46" stroke="#000" transform="rotate(5.42868 36.3357 196.702)"/>
   <path fill="#ffffff" d="m24.88246,189.9484l3.52423,0l0,12.18615l-3.52423,0l0,-12.18615z" id="svg_47" stroke="#000" transform="rotate(-10.3467 26.6437 196.041)"/>
   <path fill="#ffffff" d="m15.44068,189.08187l3.52423,0l0,17.31658l-3.52423,0l0,-17.31658z" id="svg_48" stroke="#000" transform="rotate(-22.6715 17.2027 197.74)"/>
   <path fill="#ffffff" stroke="#000" opacity="undefined" d="m32.55765,240.36415c-11.60221,0 -21,-8.95028 -21,-20c0,-11.04972 9.39779,-20 21,-20c11.60221,0 21,8.95028 21,20c0,11.04972 -9.39779,20 -21,20z" id="svg_49"/>
   <ellipse fill="#ffffff" cx="31.39919" cy="185.23203" id="svg_50" rx="26.95475" ry="7.26872" stroke="#000"/>
  </g>
  <g id="svg_58" transform="rotate(-90 31.9542 284.164)">
   <path fill="#ffffff" d="m45.07113,264.3023l3.52423,0l0,17.31657l-3.52423,0l0,-17.31657z" id="svg_52" stroke="#000" transform="rotate(15.3694 46.8322 272.96)"/>
   <path fill="#ffffff" d="m35.12965,265.60935l3.52423,0l0,12.18616l-3.52423,0l0,-12.18616z" id="svg_53" stroke="#000" transform="rotate(5.42868 36.8912 271.702)"/>
   <path fill="#ffffff" d="m25.43802,264.94856l3.52423,0l0,12.18615l-3.52423,0l0,-12.18615z" id="svg_54" stroke="#000" transform="rotate(-10.3467 27.1992 271.041)"/>
   <path fill="#ffffff" d="m15.99624,264.08203l3.52423,0l0,17.31658l-3.52423,0l0,-17.31658z" id="svg_55" stroke="#000" transform="rotate(-22.6715 17.7582 272.74)"/>
   <path fill="#ffffff" stroke="#000" opacity="undefined" d="m33.11321,315.36431c-11.60221,0 -21,-8.95028 -21,-20c0,-11.04972 9.39779,-20 21,-20c11.60221,0 21,8.95028 21,20c0,11.04972 -9.39779,20 -21,20z" id="svg_56"/>
   <ellipse fill="#ffffff" cx="31.95474" cy="260.23219" id="svg_57" rx="26.95475" ry="7.26872" stroke="#000"/>
  </g>
 </g>
</svg>