<svg width="260" height="259" xmlns="http://www.w3.org/2000/svg">
 <title>Silla</title>

 <g>
  <title>Layer 1</title>
  <path id="svg_39" d="m68.78841,66.89706l123,0l0,125l-123,0l0,-125z" opacity="undefined" stroke="#000" fill="#ffffff"/>
  <g id="svg_7">
   <path transform="rotate(15.3694 144.034 21.0021)" stroke="#000" id="svg_1" d="m142.27147,12.34386l3.52423,0l0,17.31657l-3.52423,0l0,-17.31657z" fill="#ffffff"/>
   <path transform="rotate(5.42868 134.092 19.744)" stroke="#000" id="svg_2" d="m132.32999,13.65091l3.52423,0l0,12.18616l-3.52423,0l0,-12.18616z" fill="#ffffff"/>
   <path transform="rotate(-10.3467 124.4 19.0832)" stroke="#000" id="svg_3" d="m122.63836,12.99012l3.52423,0l0,12.18615l-3.52423,0l0,-12.18615z" fill="#ffffff"/>
   <path transform="rotate(-22.6715 114.959 20.7818)" stroke="#000" id="svg_4" d="m113.19658,12.12359l3.52423,0l0,17.31658l-3.52423,0l0,-17.31658z" fill="#ffffff"/>
   <path id="svg_5" d="m130.31355,63.40587c-11.60221,0 -21,-8.95028 -21,-20c0,-11.04972 9.39779,-20 21,-20c11.60221,0 21,8.95028 21,20c0,11.04972 -9.39779,20 -21,20z" opacity="undefined" stroke="#000" fill="#ffffff"/>
   <ellipse stroke="#000" ry="7.26872" rx="26.95475" id="svg_6" cy="8.27375" cx="129.15508" fill="#ffffff"/>
  </g>
  <g transform="rotate(90 227.027 129.652)" id="svg_14">
   <path transform="rotate(15.3694 241.905 118.449)" stroke="#000" id="svg_8" d="m240.14377,109.79062l3.52423,0l0,17.31657l-3.52423,0l0,-17.31657z" fill="#ffffff"/>
   <path transform="rotate(5.42868 231.964 117.191)" stroke="#000" id="svg_9" d="m230.20229,111.09767l3.52423,0l0,12.18616l-3.52423,0l0,-12.18616z" fill="#ffffff"/>
   <path transform="rotate(-10.3467 222.272 116.53)" stroke="#000" id="svg_10" d="m220.51066,110.43688l3.52423,0l0,12.18615l-3.52423,0l0,-12.18615z" fill="#ffffff"/>
   <path transform="rotate(-22.6715 212.831 118.229)" stroke="#000" id="svg_11" d="m211.06888,109.57035l3.52423,0l0,17.31658l-3.52423,0l0,-17.31658z" fill="#ffffff"/>
   <path id="svg_12" d="m228.18585,160.85263c-11.60221,0 -21,-8.95028 -21,-20c0,-11.04972 9.39779,-20 21,-20c11.60221,0 21,8.95028 21,20c0,11.04972 -9.39779,20 -21,20z" opacity="undefined" stroke="#000" fill="#ffffff"/>
   <ellipse stroke="#000" ry="7.26872" rx="26.95475" id="svg_13" cy="105.72051" cx="227.02738" fill="#ffffff"/>
  </g>
  <g transform="rotate(180 132.134 227.099)" id="svg_21">
   <path transform="rotate(15.3694 147.012 215.896)" stroke="#000" id="svg_15" d="m145.25019,207.23738l3.52423,0l0,17.31657l-3.52423,0l0,-17.31657z" fill="#ffffff"/>
   <path transform="rotate(5.42868 137.071 214.638)" stroke="#000" id="svg_16" d="m135.30871,208.54443l3.52423,0l0,12.18616l-3.52423,0l0,-12.18616z" fill="#ffffff"/>
   <path transform="rotate(-10.3467 127.379 213.977)" stroke="#000" id="svg_17" d="m125.61708,207.88364l3.52423,0l0,12.18615l-3.52423,0l0,-12.18615z" fill="#ffffff"/>
   <path transform="rotate(-22.6715 117.938 215.676)" stroke="#000" id="svg_18" d="m116.1753,207.01711l3.52423,0l0,17.31658l-3.52423,0l0,-17.31658z" fill="#ffffff"/>
   <path id="svg_19" d="m133.29227,258.29939c-11.60221,0 -21,-8.95028 -21,-20c0,-11.04972 9.39779,-20 21,-20c11.60221,0 21,8.95028 21,20c0,11.04972 -9.39779,20 -21,20z" opacity="undefined" stroke="#000" fill="#ffffff"/>
   <ellipse stroke="#000" ry="7.26872" rx="26.95475" id="svg_20" cy="203.16727" cx="132.1338" fill="#ffffff"/>
  </g>
  <g transform="rotate(-90 32.9849 130.503)" id="svg_28">
   <path transform="rotate(15.3694 47.8631 119.3)" stroke="#000" id="svg_22" d="m46.1013,110.64168l3.52423,0l0,17.31657l-3.52423,0l0,-17.31657z" fill="#ffffff"/>
   <path transform="rotate(5.42868 37.9221 118.042)" stroke="#000" id="svg_23" d="m36.15982,111.94873l3.52423,0l0,12.18616l-3.52423,0l0,-12.18616z" fill="#ffffff"/>
   <path transform="rotate(-10.3467 28.2301 117.381)" stroke="#000" id="svg_24" d="m26.46819,111.28794l3.52423,0l0,12.18615l-3.52423,0l0,-12.18615z" fill="#ffffff"/>
   <path transform="rotate(-22.6715 18.7891 119.08)" stroke="#000" id="svg_25" d="m17.02641,110.42141l3.52423,0l0,17.31658l-3.52423,0l0,-17.31658z" fill="#ffffff"/>
   <path id="svg_26" d="m34.14338,161.70369c-11.60221,0 -21,-8.95028 -21,-20c0,-11.04972 9.39779,-20 21,-20c11.60221,0 21,8.95028 21,20c0,11.04972 -9.39779,20 -21,20z" opacity="undefined" stroke="#000" fill="#ffffff"/>
   <ellipse stroke="#000" ry="7.26872" rx="26.95475" id="svg_27" cy="106.57157" cx="32.98492" fill="#ffffff"/>
  </g>
 </g>
</svg>